# xmcd CD database file
#
# Track frame offsets:
#	150
#	10655
#	22920
#	46727
#	60855
#	68150
#	79007
#	95680
#	111747
#	124810
#	135315
#
# Disc length: 2003 seconds
#
# Revision: 8
# Processed by: cddbd v1.5.2PL0 Copyright (c) Steve Scherf et al.
# Submitted via: CDex 1.82
#
DISCID=8307d10b
DTITLE=Lou Rawls - The Best Of Lou Rawls
DYEAR=1988
DGENRE=Blues
TTITLE0=love is a huntin' thing
TTITLE1=southside blues (monologue)
TTITLE2=tobacco road
TTITLE3=it was a very good year
TTITLE4=dead end street (monologue)
TTITLE5=dead end street
TTITLE6=street corner hustler's blues
TTITLE7=world of trouble
TTITLE8=three o'clock in the morning
TTITLE9=trouble down here below
TTITLE10=my ancestors
EXTD=1988 Capitol Records, Inc YEAR: 1988
EXTT0=
EXTT1=
EXTT2=
EXTT3=
EXTT4=
EXTT5=
EXTT6=
EXTT7=
EXTT8=
EXTT9=
EXTT10=
PLAYORDER=
